<?xml version="1.0" encoding="UTF-8"?>
<svg version="1.1" xmlns="http://www.w3.org/2000/svg" width="319" height="313">
<path d="M0 0 C1.93742341 -0.02703381 3.87495479 -0.04641125 5.8125 -0.0625 C6.89144531 -0.07410156 7.97039063 -0.08570312 9.08203125 -0.09765625 C12 0 12 0 15 1 C15.66 0.67 16.32 0.34 17 0 C18.7404417 -0.08449628 20.48409722 -0.10723024 22.2265625 -0.09765625 C23.2578125 -0.09443359 24.2890625 -0.09121094 25.3515625 -0.08789062 C26.97191406 -0.07532227 26.97191406 -0.07532227 28.625 -0.0625 C30.25695312 -0.05573242 30.25695312 -0.05573242 31.921875 -0.04882812 C34.61463789 -0.03701776 37.30729188 -0.02054778 40 0 C40 0.66 40 1.32 40 2 C41.32 2 42.64 2 44 2 C44 2.66 44 3.32 44 4 C44.66 4 45.32 4 46 4 C48.4294516 7.6441774 48.16179575 9.71241272 48 14 C48.66 14 49.32 14 50 14 C50 15.98 50 17.96 50 20 C50.66 20 51.32 20 52 20 C52 21.32 52 22.64 52 24 C52.66 24 53.32 24 54 24 C54 25.98 54 27.96 54 30 C54.66 30 55.32 30 56 30 C57.60355101 33.50776784 58.22036864 36.14354879 58 40 C58.66 40 59.32 40 60 40 C61.60355101 43.50776784 62.22036864 46.14354879 62 50 C62.66 50 63.32 50 64 50 C64 51.98 64 53.96 64 56 C64.66 56 65.32 56 66 56 C66 57.32 66 58.64 66 60 C66.66 60 67.32 60 68 60 C68 61.98 68 63.96 68 66 C68.66 66 69.32 66 70 66 C70 67.32 70 68.64 70 70 C70.66 70 71.32 70 72 70 C72 71.98 72 73.96 72 76 C72.66 76 73.32 76 74 76 C74 77.98 74 79.96 74 82 C74.66 82 75.32 82 76 82 C76 83.32 76 84.64 76 86 C76.66 86 77.32 86 78 86 C78 87.98 78 89.96 78 92 C78.66 92 79.32 92 80 92 C80 93.98 80 95.96 80 98 C80.66 98 81.32 98 82 98 C82 99.32 82 100.64 82 102 C82.99 102 83.98 102 85 102 C85.495 100.02 85.495 100.02 86 98 C86.66 98 87.32 98 88 98 C88 96.02 88 94.04 88 92 C88.66 92 89.32 92 90 92 C90 90.02 90 88.04 90 86 C90.66 86 91.32 86 92 86 C92 84.02 92 82.04 92 80 C92.66 80 93.32 80 94 80 C93.95875 79.278125 93.9175 78.55625 93.875 77.8125 C94.00921305 74.79270631 94.75170619 72.73064271 96 70 C96.66 70 97.32 70 98 70 C98 68.02 98 66.04 98 64 C98.66 64 99.32 64 100 64 C100 62.68 100 61.36 100 60 C100.66 60 101.32 60 102 60 C102 58.02 102 56.04 102 54 C102.66 54 103.32 54 104 54 C103.938125 53.29875 103.87625 52.5975 103.8125 51.875 C104.04368741 48.33012637 105.36885123 46.13180564 107 43 C107.69907414 40.26427415 107.69907414 40.26427415 108 38 C108.66 38 109.32 38 110 38 C110 36.02 110 34.04 110 32 C110.66 32 111.32 32 112 32 C111.95875 31.278125 111.9175 30.55625 111.875 29.8125 C112.00921305 26.79270631 112.75170619 24.73064271 114 22 C114.66 22 115.32 22 116 22 C116 20.02 116 18.04 116 16 C116.66 16 117.32 16 118 16 C117.95875 15.278125 117.9175 14.55625 117.875 13.8125 C118.00921305 10.79270631 118.75170619 8.73064271 120 6 C120.66 6 121.32 6 122 6 C122.33 4.68 122.66 3.36 123 2 C131.19690561 1.9768729 139.39379768 1.95908304 147.59072781 1.94818783 C151.39651577 1.9429598 155.20228148 1.93586362 159.00805664 1.92456055 C162.67792544 1.9137288 166.34777278 1.90772256 170.01765633 1.90512276 C171.42074992 1.90326903 172.82384229 1.8996494 174.2269268 1.89426994 C176.1856968 1.88705581 178.1444882 1.88659191 180.10327148 1.88647461 C181.22023911 1.884254 182.33720673 1.88203339 183.48802185 1.87974548 C186 2 186 2 187 3 C189.32817964 3.36760731 191.6618385 3.70241581 194 4 C194 4.66 194 5.32 194 6 C195.98 6 197.96 6 200 6 C200 6.66 200 7.32 200 8 C201.32 8 202.64 8 204 8 C204 8.66 204 9.32 204 10 C204.61875 10.144375 205.2375 10.28875 205.875 10.4375 C208 11 208 11 210 12 C210 12.66 210 13.32 210 14 C210.66 14 211.32 14 212 14 C212 14.66 212 15.32 212 16 C213.32 16 214.64 16 216 16 C216 16.66 216 17.32 216 18 C216.66 18 217.32 18 218 18 C218 18.66 218 19.32 218 20 C218.66 20 219.32 20 220 20 C220 20.66 220 21.32 220 22 C220.66 22 221.32 22 222 22 C222 22.66 222 23.32 222 24 C222.66 24 223.32 24 224 24 C224 25.32 224 26.64 224 28 C224.66 28 225.32 28 226 28 C226 28.66 226 29.32 226 30 C226.66 30 227.32 30 228 30 C228 30.66 228 31.32 228 32 C228.66 32 229.32 32 230 32 C234.57142857 39.28571429 234.57142857 39.28571429 234 44 C234.66 44 235.32 44 236 44 C236 45.32 236 46.64 236 48 C236.66 48 237.32 48 238 48 C238.06058594 48.71027344 238.12117187 49.42054687 238.18359375 50.15234375 C238.26738281 51.07144531 238.35117187 51.99054688 238.4375 52.9375 C238.51871094 53.85402344 238.59992188 54.77054688 238.68359375 55.71484375 C238.76044976 57.96159732 238.76044976 57.96159732 240 59 C240.09959621 60.84159023 240.13080411 62.68696967 240.1328125 64.53125 C240.13410156 65.65144531 240.13539063 66.77164063 240.13671875 67.92578125 C240.13285156 69.10527344 240.12898437 70.28476563 240.125 71.5 C240.12886719 72.67949219 240.13273438 73.85898438 240.13671875 75.07421875 C240.13478516 76.75451172 240.13478516 76.75451172 240.1328125 78.46875 C240.13168457 79.50451172 240.13055664 80.54027344 240.12939453 81.60742188 C240 84 240 84 239 85 C238.76807135 86.51469448 238.58784762 88.03754562 238.4375 89.5625 C238.35371094 90.38878906 238.26992188 91.21507813 238.18359375 92.06640625 C238.12300781 92.70449219 238.06242188 93.34257813 238 94 C237.34 94 236.68 94 236 94 C236 95.98 236 97.96 236 100 C235.34 100 234.68 100 234 100 C234 101.32 234 102.64 234 104 C233.34 104 232.68 104 232 104 C232 105.32 232 106.64 232 108 C231.34 108 230.68 108 230 108 C230 108.66 230 109.32 230 110 C229.34 110 228.68 110 228 110 C227.855625 110.61875 227.71125 111.2375 227.5625 111.875 C227 114 227 114 226 116 C225.34 116 224.68 116 224 116 C224 116.66 224 117.32 224 118 C223.34 118 222.68 118 222 118 C222 118.66 222 119.32 222 120 C221.34 120 220.68 120 220 120 C220 120.66 220 121.32 220 122 C217 124 217 124 214 124 C214 124.66 214 125.32 214 126 C213.34 126 212.68 126 212 126 C212 126.66 212 127.32 212 128 C210.68 128 209.36 128 208 128 C208 128.66 208 129.32 208 130 C207.34 130 206.68 130 206 130 C206 130.66 206 131.32 206 132 C204.68 132 203.36 132 202 132 C202 132.66 202 133.32 202 134 C200.02 134 198.04 134 196 134 C196 134.66 196 135.32 196 136 C195.34 136 194.68 136 194 136 C194 137.32 194 138.64 194 140 C194.66 140 195.32 140 196 140 C196.66 141.98 197.32 143.96 198 146 C198.66 146 199.32 146 200 146 C201.31626692 149.61973402 202 152.09567131 202 156 C202.66 156 203.32 156 204 156 C204 157.32 204 158.64 204 160 C204.66 160 205.32 160 206 160 C206 161.32 206 162.64 206 164 C206.66 164 207.32 164 208 164 C209.60355101 167.50776784 210.22036864 170.14354879 210 174 C210.66 174 211.32 174 212 174 C212 175.32 212 176.64 212 178 C212.66 178 213.32 178 214 178 C214 179.32 214 180.64 214 182 C214.66 182 215.32 182 216 182 C216 183.32 216 184.64 216 186 C216.66 186 217.32 186 218 186 C218 187.32 218 188.64 218 190 C218.66 190 219.32 190 220 190 C220 191.32 220 192.64 220 194 C220.66 194 221.32 194 222 194 C222 195.32 222 196.64 222 198 C222.66 198 223.32 198 224 198 C224 199.32 224 200.64 224 202 C224.66 202 225.32 202 226 202 C226 203.32 226 204.64 226 206 C226.66 206 227.32 206 228 206 C228 207.32 228 208.64 228 210 C228.66 210 229.32 210 230 210 C230 211.32 230 212.64 230 214 C230.66 214 231.32 214 232 214 C232.391875 215.11375 232.78375 216.2275 233.1875 217.375 C234.78132807 221.68140083 236.83264129 225.66636794 239.01171875 229.703125 C240 232 240 232 240 236 C240.66 236 241.32 236 242 236 C242 237.32 242 238.64 242 240 C242.66 240 243.32 240 244 240 C244 241.32 244 242.64 244 244 C244.66 244 245.32 244 246 244 C246 245.32 246 246.64 246 248 C246.66 248 247.32 248 248 248 C248 249.98 248 251.96 248 254 C245.03 254.99 245.03 254.99 242 256 C241.67 255.67 241.34 255.34 241 255 C238.69385918 254.92421489 236.38541934 254.91696537 234.078125 254.9375 C233.38112488 254.94128662 232.68412476 254.94507324 231.96600342 254.94897461 C228.97531025 254.96535052 225.98475203 254.99332044 222.99414062 255.02050781 C220.81380858 255.03866132 218.63349934 255.05071927 216.453125 255.0625 C214.49101074 255.07990234 214.49101074 255.07990234 212.48925781 255.09765625 C209.50210556 255.01405277 206.89280405 254.70549422 204 254 C204 253.34 204 252.68 204 252 C203.34 252 202.68 252 202 252 C202 250.68 202 249.36 202 248 C201.34 248 200.68 248 200 248 C200 246.68 200 245.36 200 244 C199.34 244 198.68 244 198 244 C198 242.68 198 241.36 198 240 C197.34 240 196.68 240 196 240 C196 238.68 196 237.36 196 236 C195.34 236 194.68 236 194 236 C194 234.68 194 233.36 194 232 C193.34 232 192.68 232 192 232 C192 230.68 192 229.36 192 228 C191.34 228 190.68 228 190 228 C190 226.68 190 225.36 190 224 C189.34 224 188.68 224 188 224 C188 222.68 188 221.36 188 220 C187.34 220 186.68 220 186 220 C186 218.68 186 217.36 186 216 C185.34 216 184.68 216 184 216 C184 214.68 184 213.36 184 212 C183.34 212 182.68 212 182 212 C182 210.68 182 209.36 182 208 C181.34 208 180.68 208 180 208 C180 206.68 180 205.36 180 204 C179.34 204 178.68 204 178 204 C177.34 201.36 176.68 198.72 176 196 C175.34 196 174.68 196 174 196 C174 194.68 174 193.36 174 192 C173.34 192 172.68 192 172 192 C172 190.68 172 189.36 172 188 C171.34 188 170.68 188 170 188 C168.74335022 185.09399739 168 183.20395416 168 180 C167.34 180 166.68 180 166 180 C166 178.68 166 177.36 166 176 C165.34 176 164.68 176 164 176 C164 174.68 164 173.36 164 172 C163.34 172 162.68 172 162 172 C161.34 169.36 160.68 166.72 160 164 C159.34 164 158.68 164 158 164 C158 162.68 158 161.36 158 160 C157.34 160 156.68 160 156 160 C156 158.68 156 157.36 156 156 C155.34 156 154.68 156 154 156 C152 150 152 150 150 144 C149.34 144 148.68 144 148 144 C148 143.34 148 142.68 148 142 C147.34 142 146.68 142 146 142 C146 141.34 146 140.68 146 140 C145.34 140 144.68 140 144 140 C144 139.34 144 138.68 144 138 C143.34 138 142.68 138 142 138 C139.30538014 133.95807022 139.76799111 131.7948504 140 127 C140.33 126.67 140.66 126.34 141 126 C141.15764405 124.22130274 141.25100677 122.43681524 141.31640625 120.65234375 C141.35830078 119.57275391 141.40019531 118.49316406 141.44335938 117.38085938 C141.48267578 116.24455078 141.52199219 115.10824219 141.5625 113.9375 C141.60568359 112.79732422 141.64886719 111.65714844 141.69335938 110.48242188 C141.79982839 107.65507805 141.90184207 104.82764262 142 102 C142.66 102 143.32 102 144 102 C144 101.34 144 100.68 144 100 C144.97348389 99.97494385 145.94696777 99.9498877 146.94995117 99.92407227 C150.57491347 99.82962722 154.19970066 99.72949833 157.82446289 99.62768555 C159.39082736 99.58447661 160.95723467 99.54279209 162.52368164 99.50268555 C164.7802418 99.44464129 167.03658908 99.38104698 169.29296875 99.31640625 C169.98899704 99.29969376 170.68502533 99.28298126 171.40214539 99.26576233 C175.03872797 99.15591581 178.45792427 98.84278009 182 98 C182 97.34 182 96.68 182 96 C183.98 95.34 185.96 94.68 188 94 C188 93.34 188 92.68 188 92 C188.66 92 189.32 92 190 92 C190 91.34 190 90.68 190 90 C190.66 90 191.32 90 192 90 C192 89.34 192 88.68 192 88 C192.66 88 193.32 88 194 88 C194 86.68 194 85.36 194 84 C194.66 84 195.32 84 196 84 C196 82.68 196 81.36 196 80 C196.66 80 197.32 80 198 80 C198 72.74 198 65.48 198 58 C197.34 58 196.68 58 196 58 C196 56.68 196 55.36 196 54 C195.34 54 194.68 54 194 54 C194 53.34 194 52.68 194 52 C193.34 52 192.68 52 192 52 C192 51.34 192 50.68 192 50 C191.34 50 190.68 50 190 50 C190 49.34 190 48.68 190 48 C189.34 48 188.68 48 188 48 C188 47.34 188 46.68 188 46 C187.34 46 186.68 46 186 46 C186 45.34 186 44.68 186 44 C185.14535156 43.86722656 184.29070312 43.73445313 183.41015625 43.59765625 C182.30542969 43.42105469 181.20070312 43.24445313 180.0625 43.0625 C178.96035156 42.88847656 177.85820312 42.71445313 176.72265625 42.53515625 C174 42 174 42 173 41 C171.58672053 40.84379445 170.1664541 40.74943827 168.74609375 40.68359375 C167.89208984 40.64169922 167.03808594 40.59980469 166.15820312 40.55664062 C165.26037109 40.51732422 164.36253906 40.47800781 163.4375 40.4375 C162.53580078 40.39431641 161.63410156 40.35113281 160.70507812 40.30664062 C158.47021515 40.20021858 156.23523692 40.09820012 154 40 C154 40.66 154 41.32 154 42 C153.01 42.33 152.02 42.66 151 43 C150.67 44.65 150.34 46.3 150 48 C149.34 48 148.68 48 148 48 C148.061875 48.680625 148.12375 49.36125 148.1875 50.0625 C147.99324942 53.10575907 147.14157631 55.21015481 145.8671875 57.953125 C144.21862977 61.84431532 143.15198732 65.93944895 142 70 C141.34 70 140.68 70 140 70 C140 71.98 140 73.96 140 76 C139.34 76 138.68 76 138 76 C138 77.98 138 79.96 138 82 C137.34 82 136.68 82 136 82 C136 83.98 136 85.96 136 88 C135.34 88 134.68 88 134 88 C134 89.32 134 90.64 134 92 C133.34 92 132.68 92 132 92 C132 93.98 132 95.96 132 98 C131.34 98 130.68 98 130 98 C130 99.32 130 100.64 130 102 C129.34 102 128.68 102 128 102 C128 103.98 128 105.96 128 108 C127.34 108 126.68 108 126 108 C126.04125 108.721875 126.0825 109.44375 126.125 110.1875 C125.99078695 113.20729369 125.24829381 115.26935729 124 118 C123.34 118 122.68 118 122 118 C122 119.98 122 121.96 122 124 C121.34 124 120.68 124 120 124 C120 125.98 120 127.96 120 130 C119.34 130 118.68 130 118 130 C118 131.32 118 132.64 118 134 C117.34 134 116.68 134 116 134 C116 135.98 116 137.96 116 140 C115.34 140 114.68 140 114 140 C114 141.98 114 143.96 114 146 C113.34 146 112.68 146 112 146 C112 147.32 112 148.64 112 150 C111.34 150 110.68 150 110 150 C110 151.98 110 153.96 110 156 C109.34 156 108.68 156 108 156 C108.04125 156.680625 108.0825 157.36125 108.125 158.0625 C107.97450035 161.59924168 107.05624147 164.63323033 106 168 C105.34 168 104.68 168 104 168 C104 169.32 104 170.64 104 172 C103.34 172 102.68 172 102 172 C102.04125 172.721875 102.0825 173.44375 102.125 174.1875 C101.99078695 177.20729369 101.24829381 179.26935729 100 182 C99.34 182 98.68 182 98 182 C98 183.98 98 185.96 98 188 C97.34 188 96.68 188 96 188 C96 189.98 96 191.96 96 194 C95.34 194 94.68 194 94 194 C94 195.98 94 197.96 94 200 C93.34 200 92.68 200 92 200 C92 202.64 92 205.28 92 208 C91.34 208 90.68 208 90 208 C90 208.66 90 209.32 90 210 C86.71303767 210.79953138 85.28976808 211.09658936 82 210 C82 208.68 82 207.36 82 206 C81.34 206 80.68 206 80 206 C80 204.02 80 202.04 80 200 C79.34 200 78.68 200 78 200 C78 198.02 78 196.04 78 194 C77.34 194 76.68 194 76 194 C76 192.68 76 191.36 76 190 C75.34 190 74.68 190 74 190 C72.68373308 186.38026598 72 183.90432869 72 180 C71.34 180 70.68 180 70 180 C70 178.68 70 177.36 70 176 C69.34 176 68.68 176 68 176 C68 174.02 68 172.04 68 170 C67.34 170 66.68 170 66 170 C66 168.02 66 166.04 66 164 C65.34 164 64.68 164 64 164 C64 162.68 64 161.36 64 160 C63.34 160 62.68 160 62 160 C62 158.68 62 157.36 62 156 C61.34 156 60.68 156 60 156 C60 154.02 60 152.04 60 150 C59.34 150 58.68 150 58 150 C58 148.68 58 147.36 58 146 C57.34 146 56.68 146 56 146 C56 144.02 56 142.04 56 140 C55.34 140 54.68 140 54 140 C54 138.68 54 137.36 54 136 C53.34 136 52.68 136 52 136 C50.68373308 132.38026598 50 129.90432869 50 126 C49.34 126 48.68 126 48 126 C48 124.68 48 123.36 48 122 C47.34 122 46.68 122 46 122 C46 120.02 46 118.04 46 116 C45.34 116 44.68 116 44 116 C42.68373308 112.38026598 42 109.90432869 42 106 C41.34 106 40.68 106 40 106 C40 104.68 40 103.36 40 102 C39.34 102 38.68 102 38 102 C36.39644899 98.49223216 35.77963136 95.85645121 36 92 C35.34 92 34.68 92 34 92 C34 90.02 34 88.04 34 86 C33.34 86 32.68 86 32 86 C32 84.68 32 83.36 32 82 C31.34 82 30.68 82 30 82 C30 80.68 30 79.36 30 78 C29.34 78 28.68 78 28 78 C28 76.02 28 74.04 28 72 C27.34 72 26.68 72 26 72 C24.39644899 68.49223216 23.77963136 65.85645121 24 62 C23.34 62 22.68 62 22 62 C22 60.68 22 59.36 22 58 C21.34 58 20.68 58 20 58 C18.68373308 54.38026598 18 51.90432869 18 48 C17.34 48 16.68 48 16 48 C16 46.68 16 45.36 16 44 C15.34 44 14.68 44 14 44 C14 42.68 14 41.36 14 40 C13.34 40 12.68 40 12 40 C12 38.02 12 36.04 12 34 C11.34 34 10.68 34 10 34 C10 32.02 10 30.04 10 28 C9.34 28 8.68 28 8 28 C8 26.68 8 25.36 8 24 C7.34 24 6.68 24 6 24 C4.39644899 20.49223216 3.77963136 17.85645121 4 14 C3.34 14 2.68 14 2 14 C2 12.68 2 11.36 2 10 C1.34 10 0.68 10 0 10 C0 6.7 0 3.4 0 0 Z " fill="#1AC0E3" transform="translate(41,26)"/>
<path d="M0 0 C0.66 0 1.32 0 2 0 C2 0.66 2 1.32 2 2 C2.66 2 3.32 2 4 2 C4 2.66 4 3.32 4 4 C4.66 4 5.32 4 6 4 C10.57142857 11.28571429 10.57142857 11.28571429 10 16 C10.66 16 11.32 16 12 16 C12 17.32 12 18.64 12 20 C12.66 20 13.32 20 14 20 C14.06058594 20.71027344 14.12117188 21.42054687 14.18359375 22.15234375 C14.26738281 23.07144531 14.35117187 23.99054688 14.4375 24.9375 C14.51871094 25.85402344 14.59992188 26.77054688 14.68359375 27.71484375 C14.76044976 29.96159732 14.76044976 29.96159732 16 31 C16.09959621 32.84159023 16.13080411 34.68696967 16.1328125 36.53125 C16.13474609 38.21154297 16.13474609 38.21154297 16.13671875 39.92578125 C16.13285156 41.10527344 16.12898438 42.28476563 16.125 43.5 C16.13080078 45.26923828 16.13080078 45.26923828 16.13671875 47.07421875 C16.13542969 48.19441406 16.13414062 49.31460938 16.1328125 50.46875 C16.13168457 51.50451172 16.13055664 52.54027344 16.12939453 53.60742188 C16 56 16 56 15 57 C14.76807135 58.51469448 14.58784762 60.03754562 14.4375 61.5625 C14.35371094 62.38878906 14.26992188 63.21507812 14.18359375 64.06640625 C14.12300781 64.70449219 14.06242187 65.34257813 14 66 C13.34 66 12.68 66 12 66 C12 67.98 12 69.96 12 72 C11.34 72 10.68 72 10 72 C10 73.32 10 74.64 10 76 C9.34 76 8.68 76 8 76 C8 77.32 8 78.64 8 80 C7.34 80 6.68 80 6 80 C6 80.66 6 81.32 6 82 C5.34 82 4.68 82 4 82 C3.855625 82.61875 3.71125 83.2375 3.5625 83.875 C3 86 3 86 2 88 C1.34 88 0.68 88 0 88 C0 88.66 0 89.32 0 90 C-0.66 90 -1.32 90 -2 90 C-2 90.66 -2 91.32 -2 92 C-2.66 92 -3.32 92 -4 92 C-4 92.66 -4 93.32 -4 94 C-7 96 -7 96 -10 96 C-10 96.66 -10 97.32 -10 98 C-10.66 98 -11.32 98 -12 98 C-12 98.66 -12 99.32 -12 100 C-13.32 100 -14.64 100 -16 100 C-16 100.66 -16 101.32 -16 102 C-16.66 102 -17.32 102 -18 102 C-18 102.66 -18 103.32 -18 104 C-19.32 104 -20.64 104 -22 104 C-22 104.66 -22 105.32 -22 106 C-23.98 106 -25.96 106 -28 106 C-28 106.66 -28 107.32 -28 108 C-28.66 108 -29.32 108 -30 108 C-30 109.32 -30 110.64 -30 112 C-29.34 112 -28.68 112 -28 112 C-27.34 113.98 -26.68 115.96 -26 118 C-25.34 118 -24.68 118 -24 118 C-22.68373308 121.61973402 -22 124.09567131 -22 128 C-21.34 128 -20.68 128 -20 128 C-20 129.32 -20 130.64 -20 132 C-19.34 132 -18.68 132 -18 132 C-18 133.32 -18 134.64 -18 136 C-17.34 136 -16.68 136 -16 136 C-14.39644899 139.50776784 -13.77963136 142.14354879 -14 146 C-13.34 146 -12.68 146 -12 146 C-12 147.32 -12 148.64 -12 150 C-11.34 150 -10.68 150 -10 150 C-10 151.32 -10 152.64 -10 154 C-9.34 154 -8.68 154 -8 154 C-8 155.32 -8 156.64 -8 158 C-7.34 158 -6.68 158 -6 158 C-6 159.32 -6 160.64 -6 162 C-5.34 162 -4.68 162 -4 162 C-4 163.32 -4 164.64 -4 166 C-3.34 166 -2.68 166 -2 166 C-2 167.32 -2 168.64 -2 170 C-1.34 170 -0.68 170 0 170 C0 171.32 0 172.64 0 174 C0.66 174 1.32 174 2 174 C2 175.32 2 176.64 2 178 C2.66 178 3.32 178 4 178 C4 179.32 4 180.64 4 182 C4.66 182 5.32 182 6 182 C6 183.32 6 184.64 6 186 C6.66 186 7.32 186 8 186 C8.391875 187.11375 8.78375 188.2275 9.1875 189.375 C10.78132807 193.68140083 12.83264129 197.66636794 15.01171875 201.703125 C16 204 16 204 16 208 C16.66 208 17.32 208 18 208 C18 209.32 18 210.64 18 212 C18.66 212 19.32 212 20 212 C20 213.32 20 214.64 20 216 C20.66 216 21.32 216 22 216 C22 217.32 22 218.64 22 220 C22.66 220 23.32 220 24 220 C24 221.98 24 223.96 24 226 C21.03 226.99 21.03 226.99 18 228 C17.67 227.67 17.34 227.34 17 227 C14.69385918 226.92421489 12.38541934 226.91696537 10.078125 226.9375 C9.38112488 226.94128662 8.68412476 226.94507324 7.96600342 226.94897461 C4.97531025 226.96535052 1.98475203 226.99332044 -1.00585938 227.02050781 C-3.18619142 227.03866132 -5.36650066 227.05071927 -7.546875 227.0625 C-8.85495117 227.07410156 -10.16302734 227.08570313 -11.51074219 227.09765625 C-14.49789444 227.01405277 -17.10719595 226.70549422 -20 226 C-20 225.34 -20 224.68 -20 224 C-6.14 224 7.72 224 22 224 C19.36 218.72 16.72 213.44 14 208 C9.66179932 199.11722675 9.66179932 199.11722675 8.21777344 196.13110352 C7.89675659 195.4674881 7.57573975 194.80387268 7.24499512 194.12014771 C6.91664673 193.44112396 6.58829834 192.76210022 6.25 192.0625 C5.54981571 190.6157987 4.8496202 189.16910283 4.14941406 187.72241211 C2.41676803 184.14144581 0.68587291 180.55963628 -1.04443359 176.97753906 C-1.93126795 175.14224058 -2.81910743 173.30742789 -3.70703125 171.47265625 C-9.85841346 158.75776448 -15.88366967 145.99394306 -21.75366211 133.14648438 C-24.9358761 126.20888569 -28.23328599 119.34927465 -31.85449219 112.62866211 C-32.64255897 111.12170516 -33.33164593 109.56373635 -34 108 C-33.67 107.01 -33.34 106.02 -33 105 C-30.2265625 103.67578125 -30.2265625 103.67578125 -26.625 102.3125 C-19.61034073 99.49748323 -13.84138148 95.83918368 -8 91 C-7.35546875 90.48050781 -6.7109375 89.96101563 -6.046875 89.42578125 C2.8002179 81.51520494 8.05118603 69.25489731 11 58 C11.23589844 57.13246094 11.47179687 56.26492187 11.71484375 55.37109375 C15.60156593 38.32540366 11.09787582 20.43188899 2.48828125 5.609375 C1 3 1 3 0 0 Z " fill="#0B0C12" transform="translate(265,54)"/>
<path d="M0 0 C4.45798044 -0.14667378 8.91533054 -0.23453375 13.375 -0.3125 C14.62667969 -0.35439453 15.87835938 -0.39628906 17.16796875 -0.43945312 C26.78289037 -0.56530288 33.14676125 1.15403722 40.69140625 7.1328125 C41.61759766 8.11894531 41.61759766 8.11894531 42.5625 9.125 C43.20316406 9.78757812 43.84382813 10.45015625 44.50390625 11.1328125 C46 13 46 13 47 16 C46.34 16 45.68 16 45 16 C45 15.34 45 14.68 45 14 C44.34 14 43.68 14 43 14 C43 13.34 43 12.68 43 12 C42.34 12 41.68 12 41 12 C41 11.34 41 10.68 41 10 C40.34 10 39.68 10 39 10 C39 9.34 39 8.68 39 8 C38.34 8 37.68 8 37 8 C37 7.34 37 6.68 37 6 C36.14535156 5.86722656 35.29070312 5.73445313 34.41015625 5.59765625 C33.30542969 5.42105469 32.20070313 5.24445313 31.0625 5.0625 C29.96035156 4.88847656 28.85820312 4.71445313 27.72265625 4.53515625 C25 4 25 4 24 3 C22.58672053 2.84379445 21.1664541 2.74943827 19.74609375 2.68359375 C18.89208984 2.64169922 18.03808594 2.59980469 17.15820312 2.55664062 C16.26037109 2.51732422 15.36253906 2.47800781 14.4375 2.4375 C13.53580078 2.39431641 12.63410156 2.35113281 11.70507812 2.30664062 C9.47021515 2.20021858 7.23523692 2.09820012 5 2 C5 2.66 5 3.32 5 4 C4.01 4.33 3.02 4.66 2 5 C1.67 6.65 1.34 8.3 1 10 C0.34 10 -0.32 10 -1 10 C-0.938125 10.680625 -0.87625 11.36125 -0.8125 12.0625 C-1.00675058 15.10575907 -1.85842369 17.21015481 -3.1328125 19.953125 C-4.78137023 23.84431532 -5.84801268 27.93944895 -7 32 C-7.66 32 -8.32 32 -9 32 C-9 33.98 -9 35.96 -9 38 C-9.66 38 -10.32 38 -11 38 C-11 39.98 -11 41.96 -11 44 C-11.66 44 -12.32 44 -13 44 C-13 45.98 -13 47.96 -13 50 C-13.66 50 -14.32 50 -15 50 C-15 51.32 -15 52.64 -15 54 C-15.66 54 -16.32 54 -17 54 C-17 55.98 -17 57.96 -17 60 C-17.66 60 -18.32 60 -19 60 C-19 61.32 -19 62.64 -19 64 C-19.66 64 -20.32 64 -21 64 C-21 65.98 -21 67.96 -21 70 C-21.66 70 -22.32 70 -23 70 C-22.95875 70.721875 -22.9175 71.44375 -22.875 72.1875 C-23.00921305 75.20729369 -23.75170619 77.26935729 -25 80 C-25.66 80 -26.32 80 -27 80 C-27 81.98 -27 83.96 -27 86 C-27.66 86 -28.32 86 -29 86 C-29 87.98 -29 89.96 -29 92 C-29.66 92 -30.32 92 -31 92 C-31 93.32 -31 94.64 -31 96 C-31.66 96 -32.32 96 -33 96 C-33 97.98 -33 99.96 -33 102 C-33.66 102 -34.32 102 -35 102 C-35 103.98 -35 105.96 -35 108 C-35.66 108 -36.32 108 -37 108 C-37 109.32 -37 110.64 -37 112 C-37.66 112 -38.32 112 -39 112 C-39 113.98 -39 115.96 -39 118 C-39.66 118 -40.32 118 -41 118 C-40.95875 118.680625 -40.9175 119.36125 -40.875 120.0625 C-41.02549965 123.59924168 -41.94375853 126.63323033 -43 130 C-43.66 130 -44.32 130 -45 130 C-45 131.32 -45 132.64 -45 134 C-45.66 134 -46.32 134 -47 134 C-46.95875 134.721875 -46.9175 135.44375 -46.875 136.1875 C-47.00921305 139.20729369 -47.75170619 141.26935729 -49 144 C-49.66 144 -50.32 144 -51 144 C-51 145.98 -51 147.96 -51 150 C-51.66 150 -52.32 150 -53 150 C-53 151.98 -53 153.96 -53 156 C-53.66 156 -54.32 156 -55 156 C-55 157.98 -55 159.96 -55 162 C-55.66 162 -56.32 162 -57 162 C-57 164.64 -57 167.28 -57 170 C-57.66 170 -58.32 170 -59 170 C-59 170.66 -59 171.32 -59 172 C-60.65 172.33 -62.3 172.66 -64 173 C-61.93900642 164.33432718 -58.87292634 156.14577539 -55.62127686 147.87680054 C-53.94791332 143.61748385 -52.29575396 139.34997118 -50.64453125 135.08203125 C-50.28214355 134.14563309 -49.91975586 133.20923492 -49.54638672 132.24446106 C-44.78807238 119.91030531 -40.19760958 107.51292284 -35.59329987 95.12069321 C-29.15331085 77.78845688 -22.69516716 60.46536359 -16.05111694 43.21011353 C-10.53112539 28.86852712 -5.24143982 14.44541453 0 0 Z " fill="#0C1017" transform="translate(190,64)"/>
<path d="M0 0 C0.66 0 1.32 0 2 0 C2 0.66 2 1.32 2 2 C2.66 2 3.32 2 4 2 C6.4294516 5.6441774 6.16179575 7.71241272 6 12 C6.66 12 7.32 12 8 12 C8 13.98 8 15.96 8 18 C8.66 18 9.32 18 10 18 C10 19.32 10 20.64 10 22 C10.66 22 11.32 22 12 22 C12 23.98 12 25.96 12 28 C12.66 28 13.32 28 14 28 C15.60355101 31.50776784 16.22036864 34.14354879 16 38 C16.66 38 17.32 38 18 38 C19.60355101 41.50776784 20.22036864 44.14354879 20 48 C20.66 48 21.32 48 22 48 C22 49.98 22 51.96 22 54 C22.66 54 23.32 54 24 54 C24 55.32 24 56.64 24 58 C24.66 58 25.32 58 26 58 C26 59.98 26 61.96 26 64 C26.66 64 27.32 64 28 64 C28 65.32 28 66.64 28 68 C28.66 68 29.32 68 30 68 C30 69.98 30 71.96 30 74 C30.66 74 31.32 74 32 74 C32 75.98 32 77.96 32 80 C32.66 80 33.32 80 34 80 C34 81.32 34 82.64 34 84 C34.66 84 35.32 84 36 84 C36 85.98 36 87.96 36 90 C36.66 90 37.32 90 38 90 C38 91.98 38 93.96 38 96 C38.66 96 39.32 96 40 96 C40 97.32 40 98.64 40 100 C41.32 100 42.64 100 44 100 C43.34 102.31 42.68 104.62 42 107 C39.3292485 105.66462425 39.25008206 104.52474357 38.22265625 101.7512207 C37.87985626 100.8370488 37.53705627 99.92287689 37.18386841 98.98100281 C36.81381683 97.97277969 36.44376526 96.96455658 36.0625 95.92578125 C35.66980927 94.87449539 35.27711853 93.82320953 34.87252808 92.74006653 C34.0212585 90.45974857 33.17307033 88.17827848 32.32757568 85.89581299 C30.08990105 79.85601527 27.83031556 73.82444029 25.5703125 67.79296875 C25.10956329 66.56215576 24.64881409 65.33134277 24.17410278 64.06323242 C18.79917139 49.7407073 13.19615385 35.50873024 7.5625 21.28637695 C7.20141144 20.37143967 6.84032288 19.45650238 6.46829224 18.51383972 C5.80188135 16.82566604 5.13274687 15.13856351 4.46017456 13.45283508 C2.70941754 9.01520648 1.22993878 4.61016829 0 0 Z " fill="#0B0D13" transform="translate(83,28)"/>
<path d="M0 0 C1.93742341 -0.02703381 3.87495479 -0.04641125 5.8125 -0.0625 C6.89144531 -0.07410156 7.97039063 -0.08570312 9.08203125 -0.09765625 C12 0 12 0 15 1 C15.66 0.67 16.32 0.34 17 0 C18.7404417 -0.08449628 20.48409722 -0.10723024 22.2265625 -0.09765625 C23.2578125 -0.09443359 24.2890625 -0.09121094 25.3515625 -0.08789062 C26.97191406 -0.07532227 26.97191406 -0.07532227 28.625 -0.0625 C30.25695312 -0.05573242 30.25695312 -0.05573242 31.921875 -0.04882812 C34.61463789 -0.03701776 37.30729188 -0.02054778 40 0 C40 0.66 40 1.32 40 2 C40.66 2 41.32 2 42 2 C41.67 2.99 41.34 3.98 41 5 C41 4.34 41 3.68 41 3 C27.47 3.33 13.94 3.66 0 4 C0 2.68 0 1.36 0 0 Z " fill="#128B99" transform="translate(41,26)"/>
<path d="M0 0 C0.33 0.66 0.66 1.32 1 2 C3.02463255 2.65213292 3.02463255 2.65213292 5 3 C5.11472656 3.69738281 5.22945313 4.39476563 5.34765625 5.11328125 C6.07227141 8.31981182 7.16845827 11.15610951 8.4375 14.1875 C8.86933594 15.23292969 9.30117187 16.27835938 9.74609375 17.35546875 C10.85704409 20.0810292 10.85704409 20.0810292 13 22 C13.125 25.125 13.125 25.125 13 28 C12.01 27.67 11.02 27.34 10 27 C10 25.68 10 24.36 10 23 C9.34 23 8.68 23 8 23 C8 21.68 8 20.36 8 19 C7.34 19 6.68 19 6 19 C4.39644899 15.49223216 3.77963136 12.85645121 4 9 C3.34 9 2.68 9 2 9 C2 7.02 2 5.04 2 3 C1.34 3 0.68 3 0 3 C0 2.01 0 1.02 0 0 Z " fill="#137C8A" transform="translate(73,109)"/>
<path d="M0 0 C1.5 1.375 1.5 1.375 3 3 C3 3.66 3 4.32 3 5 C3.99 5.33 4.98 5.66 6 6 C9.36061087 11.61396845 11.56497647 17.47464703 12 24 C11.34 24 10.68 24 10 24 C10 22.68 10 21.36 10 20 C9.34 20 8.68 20 8 20 C8 18.68 8 17.36 8 16 C7.34 16 6.68 16 6 16 C6 14.68 6 13.36 6 12 C5.34 12 4.68 12 4 12 C4 10.68 4 9.36 4 8 C3.34 8 2.68 8 2 8 C2 6.68 2 5.36 2 4 C1.34 4 0.68 4 0 4 C0 2.68 0 1.36 0 0 Z " fill="#0E3E48" transform="translate(219,226)"/>
<path d="M0 0 C1.6874269 0.00015917 3.37485866 0.00585622 5.06225586 0.01586914 C6.39189613 0.01799156 6.39189613 0.01799156 7.74839783 0.02015686 C10.59133215 0.02577324 13.43418892 0.03832848 16.27709961 0.05102539 C18.19962452 0.05603828 20.12215065 0.06060155 22.04467773 0.06469727 C26.7680151 0.07574798 31.49129419 0.09302356 36.21459961 0.11352539 C36.21459961 0.44352539 36.21459961 0.77352539 36.21459961 1.11352539 C23.67459961 1.11352539 11.13459961 1.11352539 -1.78540039 1.11352539 C-1.45540039 2.43352539 -1.12540039 3.75352539 -0.78540039 5.11352539 C-2.76540039 6.10352539 -2.76540039 6.10352539 -4.78540039 7.11352539 C-4.82794395 5.11397793 -4.82620822 3.11310903 -4.78540039 1.11352539 C-3.78540039 0.11352539 -3.78540039 0.11352539 0 0 Z " fill="#18B6DB" transform="translate(45.785400390625,28.886474609375)"/>
<path d="M0 0 C7.59 0 15.18 0 23 0 C23 0.33 23 0.66 23 1 C17.06 1.33 11.12 1.66 5 2 C5 2.66 5 3.32 5 4 C4.01 4.33 3.02 4.66 2 5 C1.67 6.65 1.34 8.3 1 10 C0.01 10 -0.98 10 -2 10 C-1.54177532 6.53058454 -1.10868317 3.32604951 0 0 Z " fill="#0C0709" transform="translate(190,64)"/>
<path d="M0 0 C13.86 0 27.72 0 42 0 C40.68 0.99 39.36 1.98 38 3 C37.505 2.505 37.505 2.505 37 2 C34.69385918 1.92421489 32.38541934 1.91696537 30.078125 1.9375 C29.38112488 1.94128662 28.68412476 1.94507324 27.96600342 1.94897461 C24.97531025 1.96535052 21.98475203 1.99332044 18.99414062 2.02050781 C16.81380858 2.03866132 14.63349934 2.05071927 12.453125 2.0625 C11.14504883 2.07410156 9.83697266 2.08570313 8.48925781 2.09765625 C5.50210556 2.01405277 2.89280405 1.70549422 0 1 C0 0.67 0 0.34 0 0 Z " fill="#0C121A" transform="translate(245,279)"/>
<path d="M0 0 C0.66 0 1.32 0 2 0 C1.42351925 7.35012956 -0.71046164 14.01424576 -3 21 C-3.99 21 -4.98 21 -6 21 C-6 20.01 -6 19.02 -6 18 C-5.34 18 -4.68 18 -4 18 C-4 16.02 -4 14.04 -4 12 C-3.34 12 -2.68 12 -2 12 C-2 10.02 -2 8.04 -2 6 C-1.34 6 -0.68 6 0 6 C0 4.02 0 2.04 0 0 Z " fill="#1393A3" transform="translate(133,106)"/>
<path d="M0 0 C1.98 0 3.96 0 6 0 C6.86375896 1.61992165 7.71575854 3.24611861 8.5625 4.875 C9.03816406 5.77992188 9.51382813 6.68484375 10.00390625 7.6171875 C10.49697266 8.79667969 10.49697266 8.79667969 11 10 C10.67 10.66 10.34 11.32 10 12 C9.67 11.01 9.34 10.02 9 9 C8.34 9 7.68 9 7 9 C7 8.34 7 7.68 7 7 C6.34 7 5.68 7 5 7 C5 6.34 5 5.68 5 5 C4.34 5 3.68 5 3 5 C3 4.34 3 3.68 3 3 C2.34 3 1.68 3 1 3 C0.67 2.01 0.34 1.02 0 0 Z " fill="#0B0D13" transform="translate(182,161)"/>
<path d="M0 0 C6.9730872 0.92166022 11.09891203 5.76622164 15.5 10.9375 C16.2425 11.9584375 16.2425 11.9584375 17 13 C16.01 13.495 16.01 13.495 15 14 C15 13.34 15 12.68 15 12 C14.34 12 13.68 12 13 12 C13 11.34 13 10.68 13 10 C12.34 10 11.68 10 11 10 C11 9.34 11 8.68 11 8 C10.34 8 9.68 8 9 8 C9 7.34 9 6.68 9 6 C8.34 6 7.68 6 7 6 C7 5.34 7 4.68 7 4 C6.401875 3.896875 5.80375 3.79375 5.1875 3.6875 C2.71756736 2.91123545 1.67748765 1.92911079 0 0 Z " fill="#0B090F" transform="translate(220,66)"/>
<path d="M0 0 C1.32 0 2.64 0 4 0 C4 0.66 4 1.32 4 2 C5.32 2 6.64 2 8 2 C8 2.66 8 3.32 8 4 C8.928125 4.2165625 8.928125 4.2165625 9.875 4.4375 C12 5 12 5 14 6 C13.67 6.66 13.34 7.32 13 8 C12.01 7.34 11.02 6.68 10 6 C8.11966003 5.40678131 6.22129792 4.86904181 4.3125 4.375 C2.82169922 3.98441406 2.82169922 3.98441406 1.30078125 3.5859375 C0.16189453 3.29589844 0.16189453 3.29589844 -1 3 C-0.67 2.01 -0.34 1.02 0 0 Z " fill="#105C6A" transform="translate(237,32)"/>
<path d="M0 0 C0.66 0.66 1.32 1.32 2 2 C2.99 1.67 3.98 1.34 5 1 C5.33 2.32 5.66 3.64 6 5 C5.34 5 4.68 5 4 5 C4.33 6.65 4.66 8.3 5 10 C4.01 10 3.02 10 2 10 C2 8.68 2 7.36 2 6 C1.34 6 0.68 6 0 6 C0 4.02 0 2.04 0 0 Z " fill="#137888" transform="translate(121,226)"/>
<path d="M0 0 C0.99 1.485 0.99 1.485 2 3 C2.80695313 3.28875 3.61390625 3.5775 4.4453125 3.875 C7.74435501 5.32778936 8.36723719 6.77844467 9.875 10 C10.30554688 10.886875 10.73609375 11.77375 11.1796875 12.6875 C11.45039063 13.450625 11.72109375 14.21375 12 15 C11.67 15.66 11.34 16.32 11 17 C10.16151196 15.54462432 9.32936066 14.08559627 8.5 12.625 C8.0359375 11.81289062 7.571875 11.00078125 7.09375 10.1640625 C6 8 6 8 6 6 C4.02 6 2.04 6 0 6 C0 4.02 0 2.04 0 0 Z " fill="#1ADCF5" transform="translate(182,155)"/>
<path d="M0 0 C1.35304209 4.05912626 0.15216503 5.77149591 -1.4375 9.6875 C-2.14712891 11.45673828 -2.14712891 11.45673828 -2.87109375 13.26171875 C-3.24363281 14.16535156 -3.61617187 15.06898438 -4 16 C-5.12758089 12.61725734 -4.81750262 11.23221777 -4.0625 7.8125 C-3.86785156 6.91144531 -3.67320312 6.01039063 -3.47265625 5.08203125 C-3.31667969 4.39496094 -3.16070312 3.70789063 -3 3 C-2.01 2.67 -1.02 2.34 0 2 C0 1.34 0 0.68 0 0 Z " fill="#1AD4EE" transform="translate(134,210)"/>
<path d="M0 0 C1.32 0 2.64 0 4 0 C4 0.66 4 1.32 4 2 C4.66 2 5.32 2 6 2 C6 2.66 6 3.32 6 4 C6.66 4 7.32 4 8 4 C8 4.66 8 5.32 8 6 C8.66 6 9.32 6 10 6 C10 6.66 10 7.32 10 8 C10.66 8 11.32 8 12 8 C11.67 9.32 11.34 10.64 11 12 C10.37351562 11.30132812 9.74703125 10.60265625 9.1015625 9.8828125 C8.28429687 8.97273438 7.46703125 8.06265625 6.625 7.125 C5.81289063 6.22007813 5.00078125 5.31515625 4.1640625 4.3828125 C2.80923795 2.89103817 1.42494565 1.42494565 0 0 Z " fill="#09090F" transform="translate(253,42)"/>
<path d="M0 0 C0.66 0 1.32 0 2 0 C3.19725883 2.28703308 4.38297018 4.57884862 5.5625 6.875 C5.90474609 7.52597656 6.24699219 8.17695313 6.59960938 8.84765625 C7.46082891 10.53529857 8.23686703 12.26579593 9 14 C8.67 14.66 8.34 15.32 8 16 C7.16151196 14.54462432 6.32936066 13.08559627 5.5 11.625 C5.0359375 10.81289062 4.571875 10.00078125 4.09375 9.1640625 C3 7 3 7 3 5 C2.01 4.67 1.02 4.34 0 4 C0 2.68 0 1.36 0 0 Z " fill="#17BDD1" transform="translate(193,172)"/>
<path d="M0 0 C2.5 1.125 2.5 1.125 5 3 C5.3125 6.1875 5.3125 6.1875 5 9 C4.01 8.67 3.02 8.34 2 8 C2 6.68 2 5.36 2 4 C1.34 4 0.68 4 0 4 C0 2.68 0 1.36 0 0 Z " fill="#148A9E" transform="translate(81,128)"/>
<path d="M0 0 C3.57011026 3.732388 4.10913442 8.0949989 5 13 C4.34 13 3.68 13 3 13 C3 11.68 3 10.36 3 9 C2.34 9 1.68 9 1 9 C0.67 6.03 0.34 3.06 0 0 Z " fill="#136774" transform="translate(226,237)"/>
<path d="M0 0 C0.33 0.66 0.66 1.32 1 2 C1.99 2 2.98 2 4 2 C4.66 3.98 5.32 5.96 6 8 C5.34 8.66 4.68 9.32 4 10 C0 3.375 0 3.375 0 0 Z " fill="#0A070C" transform="translate(245,188)"/>
<path d="M0 0 C1.32 0.33 2.64 0.66 4 1 C3.34 3.31 2.68 5.62 2 8 C1.34 7.67 0.68 7.34 0 7 C-0.33 7.33 -0.66 7.66 -1 8 C-1.93065133 5.39417629 -2.14917407 4.35801776 -1.0625 1.75 C-0.711875 1.1725 -0.36125 0.595 0 0 Z " fill="#0A070B" transform="translate(145,186)"/>
<path d="M0 0 C0.66 0 1.32 0 2 0 C2 2.31 2 4.62 2 7 C0.02 7.99 0.02 7.99 -2 9 C-1.125 2.25 -1.125 2.25 0 0 Z " fill="#0C090D" transform="translate(183,84)"/>
<path d="M0 0 C0.66 0 1.32 0 2 0 C2 0.66 2 1.32 2 2 C2.66 2 3.32 2 4 2 C4.66 3.32 5.32 4.64 6 6 C5.34 6 4.68 6 4 6 C3.67 6.66 3.34 7.32 3 8 C0 2.25 0 2.25 0 0 Z " fill="#0C0C11" transform="translate(83,28)"/>
<path d="M0 0 C0.33 0.66 0.66 1.32 1 2 C3.02463255 2.65213292 3.02463255 2.65213292 5 3 C4.67 4.65 4.34 6.3 4 8 C3.34 8 2.68 8 2 8 C2 6.68 2 5.36 2 4 C1.34 4 0.68 4 0 4 C0 2.68 0 1.36 0 0 Z " fill="#126170" transform="translate(93,158)"/>
<path d="M0 0 C1.65 0.99 3.3 1.98 5 3 C4.67 4.65 4.34 6.3 4 8 C3.34 8 2.68 8 2 8 C2 6.68 2 5.36 2 4 C1.34 4 0.68 4 0 4 C0 2.68 0 1.36 0 0 Z " fill="#12434D" transform="translate(239,266)"/>
<path d="M0 0 C1.65 0.99 3.3 1.98 5 3 C4.67 4.65 4.34 6.3 4 8 C3.34 8 2.68 8 2 8 C2 6.68 2 5.36 2 4 C1.34 4 0.68 4 0 4 C0 2.68 0 1.36 0 0 Z " fill="#11404F" transform="translate(235,258)"/>
<path d="M0 0 C0.33 0.99 0.66 1.98 1 3 C1.99 3.33 2.98 3.66 4 4 C4 5.65 4 7.3 4 9 C3.34 9 2.68 9 2 9 C2 7.68 2 6.36 2 5 C1.34 5 0.68 5 0 5 C0 3.35 0 1.7 0 0 Z " fill="#105A65" transform="translate(115,211)"/>
<path d="M0 0 C2.76223278 2.76223278 2.57856291 5.20706617 3 9 C2.34 9 1.68 9 1 9 C1 7.68 1 6.36 1 5 C0.34 5 -0.32 5 -1 5 C-0.67 3.35 -0.34 1.7 0 0 Z " fill="#0F5561" transform="translate(62,79)"/>
<path d="M0 0 C0.99 0 1.98 0 3 0 C3.33 1.32 3.66 2.64 4 4 C2.02 4.99 2.02 4.99 0 6 C0 4.02 0 2.04 0 0 Z " fill="#16768A" transform="translate(41,30)"/>
</svg>
